<?xml version="1.0" standalone="no"?><!DOCTYPE svg PUBLIC "-//W3C//DTD SVG 1.1//EN" "http://www.w3.org/Graphics/SVG/1.1/DTD/svg11.dtd"><svg t="1733903082889" class="icon" viewBox="0 0 1024 1024" version="1.1" xmlns="http://www.w3.org/2000/svg" p-id="16099" xmlns:xlink="http://www.w3.org/1999/xlink" width="200" height="200"><path d="M433.152 110.592c0 48.128 38.912 87.04 87.04 87.04s87.04-38.912 87.04-87.04-38.912-87.04-87.04-87.04c-47.9232-0.2048-87.04 38.912-87.04 87.04z m0 0M659.0464 215.6544H382.976c-24.9856 0-45.4656 18.0224-48.3328 43.008v321.3312c0 18.6368 13.7216 33.9968 32.3584 33.9968 18.6368 0 33.9968-15.1552 33.9968-33.9968V329.1136c0-2.2528 1.6384-4.3008 3.6864-4.7104 2.8672-0.4096 5.3248 1.8432 5.3248 4.5056V944.128c0 28.2624 21.9136 52.224 50.176 53.248 29.4912 1.024 53.8624-22.7328 53.8624-52.0192V607.0272c0-2.6624 3.072-4.9152 5.7344-4.9152 2.6624 0 5.7344 2.2528 5.7344 4.9152V944.128c0 28.2624 21.9136 52.224 50.176 53.248 29.4912 1.024 53.8624-22.528 53.8624-52.0192V328.4992c0-2.4576 2.048-4.3008 4.3008-4.3008h0.4096c2.4576 0 4.3008 2.048 4.3008 4.3008v251.2896c0 18.6368 15.1552 33.9968 33.9968 33.9968 18.6368 0 34.816-15.1552 34.816-33.9968V258.6624c-2.8672-24.7808-23.3472-43.008-48.3328-43.008z m0 0" fill="#1A1A1A" p-id="16100"></path></svg>