<?xml version="1.0" standalone="no"?><!DOCTYPE svg PUBLIC "-//W3C//DTD SVG 1.1//EN" "http://www.w3.org/Graphics/SVG/1.1/DTD/svg11.dtd"><svg t="1731315764345" class="icon" viewBox="0 0 1024 1024" version="1.1" xmlns="http://www.w3.org/2000/svg" p-id="5065" id="mx_n_1731315764346" xmlns:xlink="http://www.w3.org/1999/xlink" width="200" height="200"><path d="M170.666667 426.666667h170.666666v170.666666H170.666667v-170.666666z m0 384v-128h170.666666v128H170.666667z m256 0v-128h170.666666v128h-170.666666z m256 0v-128h170.666666v128h-170.666666z m0-213.333334v-170.666666h170.666666v170.666666h-170.666666z m0-256V213.333333h170.666666v128h-170.666666z m-85.333334-128v128h-170.666666V213.333333h170.666666z m0 213.333334v170.666666h-170.666666v-170.666666h170.666666zM170.666667 341.333333V213.333333h170.666666v128H170.666667zM128 128a42.666667 42.666667 0 0 0-42.666667 42.666667v682.666666a42.666667 42.666667 0 0 0 42.666667 42.666667h768a42.666667 42.666667 0 0 0 42.666667-42.666667V170.666667a42.666667 42.666667 0 0 0-42.666667-42.666667H128z" fill="#6c6c6c" p-id="5066"></path></svg>