<?xml version="1.0" standalone="no"?><!DOCTYPE svg PUBLIC "-//W3C//DTD SVG 1.1//EN" "http://www.w3.org/Graphics/SVG/1.1/DTD/svg11.dtd"><svg t="1734082571381" class="icon" viewBox="0 0 1024 1024" version="1.1" xmlns="http://www.w3.org/2000/svg" p-id="12394" xmlns:xlink="http://www.w3.org/1999/xlink" width="200" height="200"><path d="M675.9 165.3H348.1c-61.8 0-112 50.2-112 112v469.4c0 61.8 50.2 112 112 112h327.8c61.8 0 112-50.2 112-112V277.3c0-61.8-50.3-112-112-112z m56 581.4c0 30.9-25.1 56-56 56H348.1c-30.9 0-56-25.1-56-56V277.3c0-30.9 25.1-56 56-56h327.8c30.9 0 56 25.1 56 56v469.4z" fill="#2c2c2c" p-id="12395"></path><path d="M643.3 330.6H392.5c-15.5 0-28 12.5-28 28s12.5 28 28 28h250.8c15.5 0 28-12.5 28-28s-12.5-28-28-28zM576.9 457.4H392.5c-15.5 0-28 12.5-28 28s12.5 28 28 28h184.4c15.5 0 28-12.5 28-28s-12.5-28-28-28zM498.7 584.3H392.5c-15.5 0-28 12.5-28 28s12.5 28 28 28h106.2c15.5 0 28-12.5 28-28s-12.5-28-28-28z" fill="#2c2c2c" p-id="12396"></path></svg>