<?xml version="1.0" encoding="UTF-8"?>
<svg width="15px" height="15px" viewBox="0 0 15 15" version="1.1" xmlns="http://www.w3.org/2000/svg" xmlns:xlink="http://www.w3.org/1999/xlink">
    <title>剧本</title>
    <g id="页面-1" stroke="none" stroke-width="1" fill="none" fill-rule="evenodd">
        <g id="剧本">
            <g id="juben" transform="translate(0, 1)" fill="#333333" fill-rule="nonzero">
                <path d="M0.688369425,3.1791771e-07 L4.63143554,3.1791771e-07 C5.57469414,-0.000229892628 6.47941696,0.374278144 7.14650239,1.04116186 C7.81358783,1.70804558 8.18836947,2.61265509 8.18836942,3.55591374 L8.18836942,13.0540659 C8.20262552,13.3087877 7.74603687,12.9224106 7.5275116,13.0540659 C7.30898632,13.1857213 7.68304859,13.4136929 7.46452332,13.2820375 C7.24599804,13.1503822 6.79952564,13.3087877 6.81378173,13.0540659 C6.81378173,12.2463074 6.15767962,11.7733237 5.34992112,11.7733237 L0.688369425,11.7733237 C0.308193489,11.7733237 0,11.4651303 0,11.0849543 L0,0.687349272 C0.000593369207,0.307593443 0.308613133,3.1791771e-07 0.688369425,3.1791771e-07 Z M6.71197032,3.61791659 C6.71197032,2.46788806 5.77962577,1.53657032 4.62959725,1.53657032 L1.5214398,1.53657032 L1.5214398,10.1494625 L5.31448031,10.1494625 C5.82583227,10.1494625 6.30329947,10.2911625 6.71094351,10.5365703 L6.71197032,3.61791659 Z" id="形状"></path>
                <path d="M7.85349761,1.04116186 C8.52058304,0.374278144 9.42530586,-0.000229892628 10.3685645,1.0587496e-07 L14.3116306,1.0587496e-07 C14.4941975,1.0587496e-07 14.669287,0.0725798522 14.7983813,0.201674161 C14.9274756,0.33076847 15,0.505857927 15,0.688424849 L15,11.0849543 C15,11.4651303 14.6918065,11.7733237 14.3116306,11.7733237 L9.65115445,11.7733237 C8.84339596,11.7733237 8.18836942,12.2463074 8.18836942,13.0540659 C8.18836942,13.2820375 7.88017594,13.4688356 7.5,13.4688356 C7.11982406,13.4688356 6.81163058,13.2820375 6.81163058,13.0540659 L6.81163058,3.55591374 C6.81163058,2.61265509 7.18641217,1.70804558 7.85349761,1.04116186 Z M9.71882865,10.1504893 L13.5118692,10.1504893 L13.5118692,1.53657032 L10.4037117,1.53657032 C9.25368319,1.53657032 8.32133864,2.46788806 8.32133864,3.61791659 L8.32133864,10.5365703 C8.73000949,10.2911625 9.20747668,10.1504893 9.71882865,10.1504893 Z" id="形状"></path>
            </g>
            <polygon id="矩形" points="-7.01819555e-14 4.37046786e-15 15 4.37046786e-15 15 15 -7.01819555e-14 15"></polygon>
        </g>
    </g>
</svg>